#N canvas -8 -8 1920 997 12;
#X obj 28 21 tgl 15 0 empty empty empty 17 7 0 10 -262144 -1 -1 1 1
;
#X msg 28 46 \; pd dsp \$1;
#X msg 492 352 \; notes 0 58 55 58 56 79 70;
#X msg 302 351 \; notes 0 60 62 63 65 63 62;
#X obj 302 214 metro 2000;
#X obj 302 180 tgl 15 0 empty empty empty 17 7 0 10 -262144 -1 -1 1
1;
#X obj 302 259 random 3;
#X msg 682 352 \; notes 0 72 75 58 56 79 60;
#X floatatom 330 290 5 0 0 0 - - -;
#X obj 117 466 dac~;
#X floatatom 118 245 5 0 0 0 - - -;
#X msg 118 279 next \$1;
#X obj 196 296 s decay;
#X floatatom 196 271 5 0 0 0 - - -;
#X obj 118 348 clone synth.cl 64;
#N canvas 1040 315 697 518 many_notes 0;
#X obj 223 197 table notes;
#X msg 171 74 \; notes 0 60 67 62 68 70 58;
#X text 177 56 a 6 note sequence;
#X obj 27 198 tabread notes;
#X floatatom 26 179 5 0 0 0 - - -;
#X floatatom 27 217 5 0 0 0 - - -;
#X obj 32 26 inlet;
#X obj 30 72 bng 15 250 50 0 empty empty empty 17 7 0 10 -262144 -1
-1;
#X obj 30 101 i 0;
#X obj 38 121 + 1;
#X obj 38 140 % 6;
#X text 58 139 <-- 6 is length of sequence;
#X text 72 118 this setup is a simple counter;
#X obj 27 234 outlet;
#X obj 33 45 metro 125;
#X connect 3 0 5 0;
#X connect 4 0 3 0;
#X connect 5 0 13 0;
#X connect 6 0 14 0;
#X connect 7 0 8 0;
#X connect 8 0 9 0;
#X connect 8 0 4 0;
#X connect 9 0 10 0;
#X connect 10 0 8 1;
#X connect 14 0 7 0;
#X restore 118 216 pd many_notes;
#X obj 906 441 dac~;
#X floatatom 907 257 5 0 0 0 - - -;
#X floatatom 964 307 5 0 0 0 - - -;
#X floatatom 1021 307 5 0 0 0 - - -;
#X floatatom 1078 307 5 0 0 0 - - -;
#X floatatom 1135 307 5 0 0 0 - - -;
#N canvas 325 192 921 623 FM 0;
#N canvas 291 193 645 473 FM_synth 0;
#X obj 66 363 osc~;
#X obj 266 245 osc~ 40;
#X text 118 83 freq;
#X obj 74 312 +~;
#X text 475 173 modulation index;
#X text 298 77 harmonicity;
#X obj 253 141 *~;
#X obj 404 228 *~;
#X obj 266 282 *~;
#X obj 66 384 outlet~;
#X obj 74 80 inlet~;
#X obj 296 101 inlet~;
#X obj 429 171 inlet~;
#X connect 0 0 9 0;
#X connect 1 0 8 0;
#X connect 3 0 0 0;
#X connect 6 0 1 0;
#X connect 6 0 7 0;
#X connect 7 0 8 1;
#X connect 8 0 3 1;
#X connect 10 0 6 0;
#X connect 10 0 3 0;
#X connect 11 0 6 1;
#X connect 12 0 7 1;
#X restore 97 336 pd FM_synth;
#N canvas 638 359 408 265 env 0;
#X obj 41 19 inlet;
#X obj 41 127 line~;
#X obj 41 169 *~;
#X obj 41 190 outlet~;
#X obj 41 148 *~;
#X obj 41 40 bng 15 250 50 0 empty empty empty 17 7 0 10 -262144 -1
-1;
#X obj 114 78 del 10;
#X obj 41 76 pack 1 3;
#X obj 112 98 pack 0 500;
#X obj 201 53 inlet;
#X floatatom 201 74 5 0 0 0 - - -;
#X text 238 74 decay time;
#X text 72 168 square the output;
#X text 67 151 square the output - steeper decay curve;
#X connect 0 0 5 0;
#X connect 1 0 4 0;
#X connect 1 0 4 1;
#X connect 2 0 3 0;
#X connect 4 0 2 0;
#X connect 4 0 2 1;
#X connect 5 0 6 0;
#X connect 5 0 7 0;
#X connect 6 0 8 0;
#X connect 7 0 1 0;
#X connect 8 0 1 0;
#X connect 9 0 10 0;
#X connect 10 0 8 1;
#X restore 231 239 pd env;
#X obj 96 143 mtof;
#X obj 96 180 t f b;
#N canvas 638 359 408 265 env 0;
#X obj 41 19 inlet;
#X obj 41 127 line~;
#X obj 41 169 *~;
#X obj 41 190 outlet~;
#X obj 41 148 *~;
#X obj 41 40 bng 15 250 50 0 empty empty empty 17 7 0 10 -262144 -1
-1;
#X obj 114 78 del 10;
#X obj 41 76 pack 1 3;
#X obj 112 98 pack 0 500;
#X obj 201 53 inlet;
#X floatatom 201 74 5 0 0 0 - - -;
#X text 238 74 decay time;
#X text 72 168 square the output;
#X text 67 151 square the output - steeper decay curve;
#X connect 0 0 5 0;
#X connect 1 0 4 0;
#X connect 1 0 4 1;
#X connect 2 0 3 0;
#X connect 4 0 2 0;
#X connect 4 0 2 1;
#X connect 5 0 6 0;
#X connect 5 0 7 0;
#X connect 6 0 8 0;
#X connect 7 0 1 0;
#X connect 8 0 1 0;
#X connect 9 0 10 0;
#X connect 10 0 8 1;
#X restore 327 360 pd env;
#X obj 101 421 *~;
#X obj 222 295 *~;
#X obj 101 88 inlet;
#X obj 255 268 inlet;
#X obj 131 286 inlet;
#X obj 322 214 inlet;
#X obj 381 313 inlet;
#X obj 101 442 outlet~;
#X connect 0 0 5 0;
#X connect 1 0 6 0;
#X connect 2 0 3 0;
#X connect 3 0 0 0;
#X connect 3 1 1 0;
#X connect 3 1 4 0;
#X connect 4 0 5 1;
#X connect 5 0 12 0;
#X connect 6 0 0 2;
#X connect 7 0 2 0;
#X connect 8 0 6 1;
#X connect 9 0 0 1;
#X connect 10 0 1 1;
#X connect 11 0 4 1;
#X restore 907 348 pd FM;
#X f 33;
#N canvas 1108 341 450 300 synth_notes 0;
#X obj 37 17 inlet;
#X obj 42 274 outlet;
#X obj 37 96 f 0;
#X obj 36 138 % 8;
#X obj 179 150 table pitches;
#X msg 183 105 \; pitches 0 60 67 62 58 63 70 72 65;
#X obj 37 188 tabread pitches;
#X floatatom 37 212 5 0 0 0 - - -;
#X obj 37 117 + 1;
#X floatatom 37 159 5 0 0 0 - - -;
#X obj 185 80 loadbang;
#X obj 37 232 - 24;
#X obj 37 58 metro 500;
#X obj 105 18 inlet;
#X connect 0 0 12 0;
#X connect 2 0 8 0;
#X connect 3 0 2 1;
#X connect 3 0 9 0;
#X connect 6 0 7 0;
#X connect 7 0 11 0;
#X connect 8 0 3 0;
#X connect 9 0 6 0;
#X connect 10 0 5 0;
#X connect 11 0 1 0;
#X connect 12 0 2 0;
#X connect 13 0 12 1;
#X restore 906 195 pd synth_notes;
#X obj 302 315 select 0 1 2, f 82;
#X obj 907 406 *~ 0.1;
#X obj 118 431 *~ 0.2;
#X msg 964 257 1;
#X msg 1021 257 8;
#X msg 1078 257 500;
#X msg 1135 258 1000;
#X obj 1021 194 loadbang;
#X obj 484 124 inlet;
#X obj 805 128 inlet;
#X obj 820 219 inlet;
#X connect 0 0 1 0;
#X connect 4 0 6 0;
#X connect 5 0 4 0;
#X connect 5 0 15 0;
#X connect 5 0 23 0;
#X connect 6 0 8 0;
#X connect 6 0 24 0;
#X connect 10 0 11 0;
#X connect 11 0 14 0;
#X connect 13 0 12 0;
#X connect 14 0 26 0;
#X connect 15 0 10 0;
#X connect 17 0 22 0;
#X connect 18 0 22 1;
#X connect 19 0 22 2;
#X connect 20 0 22 3;
#X connect 21 0 22 4;
#X connect 22 0 25 0;
#X connect 23 0 17 0;
#X connect 24 0 3 0;
#X connect 24 1 2 0;
#X connect 24 2 7 0;
#X connect 25 0 16 0;
#X connect 25 0 16 1;
#X connect 26 0 9 0;
#X connect 26 0 9 1;
#X connect 27 0 18 0;
#X connect 28 0 19 0;
#X connect 29 0 20 0;
#X connect 30 0 21 0;
#X connect 31 0 27 0;
#X connect 31 0 28 0;
#X connect 31 0 29 0;
#X connect 31 0 30 0;
#X connect 32 0 5 0;
#X connect 33 0 23 1;
#X connect 34 0 18 0;
