#N canvas 394 253 659 604 10;
#X obj 258 285 vline~;
#X obj 242 386 *~;
#X obj 258 285 vline~;
#X obj 242 386 *~;
#X obj 188 292 noise~;
#X obj 242 469 dac~;
#X obj 260 205 bng 15 250 50 0 empty empty empty 17 7 0 10 -262144
-1 -1;
#X obj 261 163 inlet;
#X msg 258 256 1 10 \, 0 25 15;
#X obj 190 347 lop~ 800;
#X obj 246 428 *~ 0.5;
#X connect 0 0 1 1;
#X connect 1 0 10 0;
#X connect 2 0 3 1;
#X connect 4 0 9 0;
#X connect 6 0 8 0;
#X connect 7 0 6 0;
#X connect 8 0 0 0;
#X connect 9 0 1 0;
#X connect 10 0 5 0;
#X connect 10 0 5 1;
