#N canvas 65 239 1167 630 10;
#X text 177 277 creation arguments are OSC address;
#X text 179 238 set message to change OSC address;
#X text 164 48 1 Set IP Address : network address;
#X text 164 68 2 Set Ports (sending and listening);
#X text 164 87 3 Set OSC Addresses (routing osc data;
#X text 155 26 Key Settings;
#X floatatom 43 194 5 0 0 0 - - -;
#N canvas 1099 23 623 462 oscReceive 0;
#X obj 55 184 netreceive -u -b;
#X msg 78 143 listen 0;
#X text 152 143 stop listening;
#X text 64 58 packets from network;
#X text 173 177 UDP packets \, binary output, f 13;
#X obj 45 314 print;
#X obj 45 272 oscparse;
#X text 150 114 listen on port 8000;
#X obj 177 269 oscparse;
#X obj 177 293 list trim;
#X text 241 267 Parse the OSC message;
#X obj 177 319 route unity;
#X msg 66 115 listen 8000;
#X obj 66 84 loadbang;
#X obj 176 363 outlet;
#X connect 0 0 6 0;
#X connect 0 0 8 0;
#X connect 1 0 0 0;
#X connect 6 0 5 0;
#X connect 8 0 9 0;
#X connect 9 0 11 0;
#X connect 11 0 14 0;
#X connect 12 0 0 0;
#X connect 13 0 12 0;
#X restore 623 13 pd oscReceive;
#X obj 46 35 tgl 15 0 empty empty empty 17 7 0 10 -262144 -1 -1 1 1
;
#X msg 47 61 \; pd dsp \$1;
#X obj 44 278 oscformat PD message;
#X msg 76 239 set PD message;
#N canvas 727 97 450 300 oscSend 0;
#X msg 158 207 disconnect;
#X obj 61 253 netsend -u -b;
#X obj 59 55 list prepend send;
#X obj 59 80 list trim;
#X msg 150 175 connect 127.0.0.1 8001;
#X obj 59 29 r oscOut;
#X text 301 163 send to port 8001;
#X msg 147 148 connect localhost 8001;
#X obj 147 108 loadbang;
#X connect 0 0 1 0;
#X connect 2 0 3 0;
#X connect 3 0 1 0;
#X connect 4 0 1 0;
#X connect 5 0 2 0;
#X connect 7 0 1 0;
#X connect 8 0 7 0;
#X restore 47 118 pd oscSend;
#X obj 44 313 s oscOut;
#X obj 981 269 AlgorithmMusic;
#X obj 910 158 route playseq;
#X obj 830 172 route step;
#X obj 832 206 Footsteps;
#X obj 652 189 route died;
#X obj 739 190 route won;
#X obj 1070 152 route health;
#X obj 567 187 route pickup;
#X obj 665 645 dac~;
#X obj 675 526 osc~;
#X obj 676 498 +~;
#X obj 674 600 *~ 0.2;
#X obj 674 563 *~;
#X obj 731 363 vline~;
#X obj 667 360 vline~;
#X obj 652 235 bng 15 250 50 0 empty empty empty 17 7 0 10 -262144
-1 -1;
#X msg 606 278 1 \, 0 4000;
#X msg 646 303 1 25 \, 0 3500 50;
#X obj 726 415 osc~ 150;
#X obj 726 448 *~ 200;
#X obj 672 451 +~ 200;
#X obj 665 412 *~ 225;
#X obj 784 229 bng 15 250 50 0 empty empty empty 17 7 0 10 -262144
-1 -1;
#X msg 779 297 1 25 \, 0 3500 50;
#X msg 738 272 0 \, 1 500 \, 0.25 500 1000 \, 1 500 2000;
#X obj 1014 35 route distance;
#X obj 1087 218 * -1;
#X obj 1090 185 / 4000;
#X obj 1081 245 + 3;
#X obj 1010 108 + 300;
#X obj 1014 69 / 15;
#X obj 442 509 dac~;
#X obj 547 426 vline~;
#X obj 456 464 *~;
#X obj 433 387 lop~ 1200;
#X msg 547 400 1 25 \, 0 500 50;
#X obj 454 336 phasor~ 500;
#X connect 6 0 10 0;
#X connect 7 0 15 0;
#X connect 7 0 16 0;
#X connect 7 0 21 0;
#X connect 7 0 18 0;
#X connect 7 0 19 0;
#X connect 7 0 20 0;
#X connect 7 0 39 0;
#X connect 8 0 9 0;
#X connect 10 0 13 0;
#X connect 11 0 10 0;
#X connect 15 0 14 0;
#X connect 16 0 17 0;
#X connect 18 0 29 0;
#X connect 19 0 36 0;
#X connect 20 0 41 0;
#X connect 21 0 49 0;
#X connect 23 0 26 0;
#X connect 24 0 23 0;
#X connect 25 0 22 0;
#X connect 25 0 22 1;
#X connect 26 0 25 0;
#X connect 27 0 26 1;
#X connect 28 0 35 0;
#X connect 29 0 30 0;
#X connect 29 0 31 0;
#X connect 30 0 28 0;
#X connect 31 0 27 0;
#X connect 32 0 33 0;
#X connect 33 0 24 1;
#X connect 34 0 24 0;
#X connect 35 0 34 0;
#X connect 36 0 38 0;
#X connect 36 0 37 0;
#X connect 37 0 27 0;
#X connect 38 0 28 0;
#X connect 39 0 44 0;
#X connect 40 0 42 0;
#X connect 41 0 40 0;
#X connect 42 0 14 2;
#X connect 43 0 14 1;
#X connect 44 0 43 0;
#X connect 46 0 47 1;
#X connect 47 0 45 1;
#X connect 47 0 45 0;
#X connect 48 0 47 0;
#X connect 49 0 46 0;
#X connect 50 0 48 0;
